# xmcd CD database file
#
# Track frame offsets:
#	150
#	32337
#	67802
#	103178
#	143996
#	189520
#	217588
#	259834
#
# Disc length: 3705 seconds
#
# Revision: 0
# Processed by: cddbd v1.5.2PL0 Copyright (c) Steve Scherf et al.
# Submitted via: CDex 1.51
#
DISCID=670e7708
DTITLE=Lisbeth Quartet - Grow
DYEAR=1900
DGENRE=Jazz
TTITLE0=Where Is The Circle
TTITLE1=Beatrice
TTITLE2=Ise«s Mind
TTITLE3=Slow Town
TTITLE4=Grow
TTITLE5=False
TTITLE6=All Or Nothing At All
TTITLE7=Johnsburg, Illinois
EXTD=
EXTT0=
EXTT1=
EXTT2=
EXTT3=
EXTT4=
EXTT5=
EXTT6=
EXTT7=
PLAYORDER=
